HIERARCHY
ROOT Hips
{
    OFFSET 0.000000 0.000000 0.000000
    CHANNELS 6 Xposition Yposition Zposition Zrotation Xrotation Yrotation
    JOINT Spine
    {
        OFFSET -0.000000 7.236184 0.000000
        CHANNELS 3 Zrotation Xrotation Yrotation
        JOINT Spine1
        {
            OFFSET -0.000000 20.420147 0.000000
            CHANNELS 3 Zrotation Xrotation Yrotation
            JOINT Neck
            {
                OFFSET -0.000000 20.336288 1.848754
                CHANNELS 3 Zrotation Xrotation Yrotation
                JOINT Head
                {
                    OFFSET -0.000000 12.354461 -1.764923
                    CHANNELS 3 Zrotation Xrotation Yrotation
                    End Site
                    {
                        OFFSET -0.000000 22.061537 0.000000
                    }
                }
            }
            JOINT LeftShoulder
            {
                OFFSET 3.573296 18.396038 -0.314103
                CHANNELS 3 Zrotation Xrotation Yrotation
                JOINT LeftArm
                {
                    OFFSET 10.880760 0.000000 0.000000
                    CHANNELS 3 Zrotation Xrotation Yrotation
                    JOINT LeftForeArm
                    {
                        OFFSET 27.185530 0.000000 0.000000
                        CHANNELS 3 Zrotation Xrotation Yrotation
                        JOINT LeftHand
                        {
                            OFFSET 27.825975 0.000000 0.000000
                            CHANNELS 3 Zrotation Xrotation Yrotation
                            End Site
                            {
                                OFFSET 13.236923 0.000000 0.000000
                            }
                        }
                    }
                }
            }
            JOINT RightShoulder
            {
                OFFSET -3.474926 18.396038 -0.314103
                CHANNELS 3 Zrotation Xrotation Yrotation
                JOINT RightArm
                {
                    OFFSET -10.880760 0.000000 0.000000
                    CHANNELS 3 Zrotation Xrotation Yrotation
                    JOINT RightForeArm
                    {
                        OFFSET -27.185530 0.000000 0.000000
                        CHANNELS 3 Zrotation Xrotation Yrotation
                        JOINT RightHand
                        {
                            OFFSET -27.825975 0.000000 0.000000
                            CHANNELS 3 Zrotation Xrotation Yrotation
                            End Site
                            {
                                OFFSET -13.236923 0.000000 0.000000
                            }
                        }
                    }
                }
            }
        }
    }
    JOINT LeftUpLeg
    {
        OFFSET 8.824615 0.000000 0.000000
        CHANNELS 3 Zrotation Xrotation Yrotation
        JOINT LeftLeg
        {
            OFFSET -0.000000 -35.111282 0.000000
            CHANNELS 3 Zrotation Xrotation Yrotation
            JOINT LeftFoot
            {
                OFFSET -0.000000 -42.324711 0.000000
                CHANNELS 3 Zrotation Xrotation Yrotation
                JOINT LeftToeBase
                {
                    OFFSET -0.000000 -5.735999 13.236923
                    CHANNELS 3 Zrotation Xrotation Yrotation
                    End Site
                    {
                        OFFSET -0.000000 0.000000 3.529846
                    }
                }
            }
        }
    }
    JOINT RightUpLeg
    {
        OFFSET -8.824615 0.000000 0.000000
        CHANNELS 3 Zrotation Xrotation Yrotation
        JOINT RightLeg
        {
            OFFSET -0.000000 -35.111282 0.000000
            CHANNELS 3 Zrotation Xrotation Yrotation
            JOINT RightFoot
            {
                OFFSET -0.000000 -42.324711 0.000000
                CHANNELS 3 Zrotation Xrotation Yrotation
                JOINT RightToeBase
                {
                    OFFSET -0.000000 -5.735999 13.236923
                    CHANNELS 3 Zrotation Xrotation Yrotation
                    End Site
                    {
                        OFFSET -0.000000 0.000000 3.529846
                    }
                }
            }
        }
    }
}
MOTION
Frames:    7
Frame Time:    0.008333
-2.166004    83.455727    115.731728    15.396886    -56.573341    -161.688644    -2.473605    3.958084    1.496944    0.603253    12.505260    1.345378    4.457596    24.988924    -3.911787    12.441898    -20.192339    0.213980    -0.528828    18.157181    -5.463676    -53.748066    1.927053    -17.365091    12.025088    -8.828136    0.596785    62.152222    -2.481824    10.649568    4.987441    17.870865    2.869075    25.152493    49.097969    46.326656    -8.301551    -18.871153    102.684509    4.414170    -9.000372    -6.219039    6.613592    -70.501305    -3.524443    0.061942    11.563117    -2.340427    -3.151273    2.270342    -8.556052    -0.686451    1.358090    0.759069    0.280447    -62.907890    4.507737    1.958579    2.264651    -1.590281    -1.633483    5.371814    -14.502505    -0.067743    1.512577    0.073119    
-2.157647    83.449745    115.782951    15.471116    -56.701035    -161.612198    -2.447088    3.976570    1.481083    0.566464    12.405196    1.334541    4.443472    25.313583    -3.886567    12.438637    -20.456839    0.280117    -0.524856    18.246946    -5.614786    -53.701874    1.909255    -17.344101    12.043748    -8.797071    0.579531    62.069138    -2.490162    10.598764    4.998114    17.963741    3.033202    25.328419    48.969681    46.050751    -8.569310    -19.129145    102.794449    4.594755    -8.928426    -6.347536    6.695954    -70.586540    -3.428873    0.029052    11.409134    -2.336808    -3.132427    2.332979    -8.552138    -0.669588    1.389922    0.740382    0.244633    -62.988392    4.506123    1.950610    2.098810    -1.675224    -1.639248    5.437859    -14.447910    -0.073857    1.539459    0.079714    
-2.149635    83.444046    115.831139    15.528747    -56.809963    -161.549057    -2.421497    3.991821    1.465292    0.530767    12.313141    1.323680    4.429572    25.624462    -3.864592    12.428901    -20.706810    0.338635    -0.521543    18.333242    -5.760045    -53.660210    1.902308    -17.332760    12.058123    -8.768327    0.566781    61.962959    -2.498768    10.556766    5.008236    18.053101    3.188773    25.498114    48.844685    45.785683    -8.840097    -19.396231    102.885803    4.790776    -8.865446    -6.467247    6.769058    -70.646461    -3.342714    -0.005107    11.251254    -2.334784    -3.112578    2.396631    -8.545289    -0.653888    1.419302    0.722985    0.204416    -63.043674    4.501076    1.942064    1.928143    -1.763010    -1.645178    5.500971    -14.388848    -0.082069    1.571142    0.088575    
-2.142142    83.438705    115.875938    15.568519    -56.899353    -161.500458    -2.397030    4.003922    1.449910    0.496014    12.230598    1.312978    4.416441    25.916393    -3.846344    12.412375    -20.938656    0.388330    -0.518291    18.414660    -5.896482    -53.623211    1.907178    -17.331665    12.067787    -8.741450    0.558007    61.832417    -2.507199    10.523636    5.018003    18.136921    3.332686    25.657795    48.724857    45.536095    -9.111281    -19.670080    102.956757    5.000374    -8.812856    -6.576163    6.831240    -70.680389    -3.267411    -0.039962    11.090316    -2.334485    -3.092383    2.461143    -8.535583    -0.639627    1.445699    0.707183    0.159545    -63.073528    4.491862    1.933289    1.754563    -1.852453    -1.651308    5.560679    -14.325752    -0.092530    1.607728    0.099859    
-2.135209    83.433807    115.917679    15.590553    -56.970161    -161.466156    -2.373556    4.012781    1.434906    0.462062    12.157830    1.302568    4.404252    26.187346    -3.831739    12.388320    -21.150608    0.428754    -0.514657    18.490517    -6.023822    -53.590607    1.923843    -17.340433    12.072373    -8.715029    0.552218    61.674488    -2.514728    10.498711    5.027473    18.214626    3.464148    25.806040    48.610325    45.303036    -9.383715    -19.951679    103.006760    5.223330    -8.771153    -6.674076    6.881841    -70.689110    -3.203494    -0.075705    10.925509    -2.335077    -3.071872    2.527159    -8.523804    -0.626963    1.469764    0.693152    0.108911    -63.079227    4.478097    1.924824    1.578168    -1.943202    -1.657816    5.617384    -14.259601    -0.105505    1.648679    0.113856    
-2.128962    83.429405    115.956177    15.594316    -57.022057    -161.446747    -2.351806    4.018387    1.420615    0.430536    12.096231    1.292497    4.391539    26.433416    -3.820979    12.357463    -21.340183    0.459337    -0.511370    18.559471    -6.140278    -53.561489    1.953389    -17.358908    12.071259    -8.688478    0.548670    61.486664    -2.521116    10.481761    5.035238    18.284470    3.581072    25.940706    48.502247    45.089672    -9.656001    -20.239384    103.034775    5.458497    -8.741132    -6.759918    6.919766    -70.672256    -3.151651    -0.111660    10.757098    -2.336863    -3.051653    2.594615    -8.510110    -0.616129    1.491317    0.681149    0.052528    -63.060680    4.459542    1.916803    1.399942    -2.034053    -1.663919    5.671061    -14.191289    -0.120944    1.693635    0.130510    
-2.123485    83.425560    115.991386    15.579865    -57.055134    -161.442261    -2.331681    4.020736    1.407095    0.401293    12.046473    1.282952    4.378571    26.651945    -3.814116    12.319755    -21.505541    0.479743    -0.507977    18.620897    -6.244734    -53.535480    1.995576    -17.386612    12.064032    -8.660499    0.546077    61.266068    -2.525402    10.472633    5.041544    18.345654    3.682293    26.059624    48.401085    44.898178    -9.926791    -20.532116    103.040245    5.705576    -8.723465    -6.833065    6.944417    -70.629944    -3.112453    -0.147782    10.585175    -2.338602    -3.031770    2.663725    -8.495781    -0.607296    1.510680    0.671361    -0.009725    -63.018631    4.436288    1.909535    1.221038    -2.124163    -1.669543    5.721841    -14.121978    -0.138998    1.741668    0.149982    
